<svg width="30" height="30" viewBox="0 0 30 30" fill="none" xmlns="http://www.w3.org/2000/svg">
<g clip-path="url(#clip0_16542_15801)">
<path d="M19 12.334C16.734 12.334 15 10.6 15 8.33402V1.66602H8.33398C6.06598 1.66602 4.33398 3.40002 4.33398 5.66602V24.334C4.33398 26.6 6.06598 28.334 8.33398 28.334H21.666C23.934 28.334 25.666 26.6 25.666 24.334V12.334H19Z" fill="#155DB4"/>
<path d="M24.868 9.666H19C18.2 9.666 17.668 9.134 17.668 8.334V2.466L24.868 9.666Z" fill="#5599EB"/>
<path d="M10.5361 25.048C10.4155 25.047 10.3001 24.9986 10.2148 24.9133C10.1295 24.828 10.0811 24.7126 10.0801 24.592C10.0801 24.346 10.2901 24.142 10.5361 24.136C10.6561 24.1391 10.7703 24.1881 10.8552 24.273C10.94 24.3578 10.989 24.472 10.9921 24.592C10.991 24.7126 10.9427 24.828 10.8574 24.9133C10.7721 24.9986 10.6567 25.047 10.5361 25.048ZM13.1901 25H11.7501V20.752H13.2141C14.4801 20.758 15.2421 21.55 15.2421 22.876C15.2421 24.202 14.4821 25 13.1901 25ZM12.5061 24.34H13.1541C14.0361 24.34 14.4861 23.848 14.4861 22.876C14.4861 21.904 14.0361 21.418 13.1661 21.412H12.5061V24.34ZM19.7081 22.876C19.7141 24.25 18.8741 25.06 17.7641 25.06C16.6481 25.06 15.8201 24.244 15.8201 22.876C15.8201 21.508 16.6481 20.698 17.7641 20.704C18.8741 20.698 19.7141 21.508 19.7081 22.876ZM16.5881 22.876C16.5821 23.848 17.0741 24.37 17.7641 24.376C18.4601 24.37 18.9461 23.848 18.9401 22.876C18.9461 21.91 18.4601 21.382 17.7641 21.388C17.0741 21.382 16.5841 21.91 16.5881 22.876ZM23.2481 22.192C23.1581 21.676 22.7521 21.382 22.2401 21.388C21.5401 21.382 21.0481 21.922 21.0541 22.876C21.0481 23.854 21.5461 24.37 22.2301 24.376C22.7401 24.37 23.1461 24.094 23.2501 23.596H24.0161C23.9041 24.406 23.2321 25.06 22.2301 25.06C21.1001 25.06 20.2841 24.244 20.2841 22.876C20.2841 21.508 21.1141 20.698 22.2301 20.704C23.1581 20.698 23.8861 21.244 24.0161 22.192H23.2501H23.2481Z" fill="white"/>
<path opacity="0.5" d="M8 8H12M8 12H12M8 16H20" stroke="white" stroke-width="2" stroke-linecap="round"/>
</g>
<defs>
<clipPath id="clip0_16542_15801">
<rect width="30" height="30" fill="white"/>
</clipPath>
</defs>
</svg>
