<svg width="30" height="30" viewBox="0 0 30 30" fill="none" xmlns="http://www.w3.org/2000/svg">
<g clip-path="url(#clip0_16542_15800)">
<path d="M19 12.334C16.734 12.334 15 10.6 15 8.33402V1.66602H8.33398C6.06598 1.66602 4.33398 3.40002 4.33398 5.66602V24.334C4.33398 26.6 6.06598 28.334 8.33398 28.334H21.666C23.934 28.334 25.666 26.6 25.666 24.334V12.334H19Z" fill="#C53C29"/>
<path d="M24.868 9.666H19C18.2 9.666 17.668 9.134 17.668 8.334V2.466L24.868 9.666Z" fill="#C77166"/>
<path d="M12.394 25.048C12.2734 25.047 12.158 24.9986 12.0727 24.9133C11.9874 24.828 11.939 24.7126 11.938 24.592C11.938 24.346 12.148 24.142 12.394 24.136C12.514 24.1391 12.6282 24.1881 12.7131 24.2729C12.7979 24.3578 12.8469 24.472 12.85 24.592C12.8489 24.7126 12.8006 24.828 12.7153 24.9133C12.63 24.9986 12.5146 25.047 12.394 25.048ZM13.608 25V20.752H15.192C16.172 20.758 16.692 21.352 16.692 22.156C16.692 22.978 16.164 23.566 15.18 23.56H14.364V25H13.608ZM14.364 22.936H15.084C15.654 22.936 15.912 22.612 15.912 22.156C15.912 21.712 15.654 21.394 15.084 21.4H14.364V22.936ZM17.32 25V20.752H18.904C19.882 20.758 20.404 21.352 20.404 22.156C20.404 22.978 19.876 23.566 18.892 23.56H18.076V25H17.32ZM18.076 22.936H18.796C19.366 22.936 19.624 22.612 19.624 22.156C19.624 21.712 19.364 21.394 18.796 21.4H18.076V22.936ZM20.836 21.4V20.752H24.22V21.4H22.912V25H22.156V21.4H20.836Z" fill="white"/>
<path opacity="0.5" d="M8 8H12M8 12H12M8 16H20" stroke="white" stroke-width="2" stroke-linecap="round"/>
</g>
<defs>
<clipPath id="clip0_16542_15800">
<rect width="30" height="30" fill="white"/>
</clipPath>
</defs>
</svg>
